<?xml version="1.0" encoding="UTF-8"?>
<svg xmlns="http://www.w3.org/2000/svg" viewBox="0 0 400 400">
  <defs>
    <style>
      .cls-1 {
        fill: #9ca3af;
        fill-rule: evenodd;
        stroke-width: 0px;
      }
    </style>
  </defs>
  <g id="cal">
    <g id="Capa_1">
      <path class="cls-1" d="m89.98,10h4.06c2.03.68,4.06,1.35,5.41,2.7,3.38,2.03,5.41,6.09,6.09,10.14v56.12c0,2.7,0,4.73-1.35,7.44-2.7,6.09-9.47,9.47-15.55,7.44-6.09-1.35-10.82-7.44-10.14-14.2V22.17c0-6.09,5.41-10.82,11.49-12.17Z"/>
      <path class="cls-1" d="m294.86,10h4.73c5.41,1.35,10.14,6.09,10.82,11.49v58.83c0,4.73-2.7,9.47-6.76,11.49-4.73,2.7-10.82,2.7-14.88-.68-2.7-2.03-4.73-5.41-5.41-9.47V22.85c0-6.09,5.41-11.49,11.49-12.85Z"/>
      <path class="cls-1" d="m26.43,67.47c2.7-8.11,10.82-14.88,19.61-15.55h25.02v22.99c0,3.38,0,6.76.68,10.14,2.03,9.47,10.82,16.23,20.28,16.23,10.82,0,20.28-9.47,20.28-19.61v-29.75h163.63c-.68,1.35,0,3.38,0,4.73v23.67c0,2.7.68,5.41,1.35,8.11,2.7,6.76,8.79,12.17,16.23,12.85,7.44,1.35,16.23-2.03,20.28-8.79,3.38-4.06,4.06-9.47,4.06-14.88v-25.02h22.99c4.73,0,9.47,1.35,13.52,4.06,5.41,3.38,8.11,9.47,9.47,15.55v297.51c-.68,2.7-1.35,5.41-2.7,8.11-2.7,5.41-8.11,10.14-14.2,11.49-1.35.68-2.7.68-4.06.68H45.36c-7.44-1.35-14.2-5.41-17.58-11.49-1.35-2.7-2.03-5.41-2.7-8.11V72.21c0-1.35.68-3.38,1.35-4.73h0Zm17.58,80.46c-.68,1.35,0,3.38-.68,5.41v210.28c0,2.03,0,4.73,1.35,6.09,1.35.68,2.03,1.35,3.38,1.35h291.42c2.7,0,4.06-1.35,4.73-4.06v-219.75H43.33l.68.68Z"/>
    </g>
  </g>
  <g id="num">
    <g>
      <path class="cls-1" d="m96.03,184.04c5.41-.68,10.82,0,16.23,0,10.82,1.35,22.31,4.73,29.75,13.52,6.76,6.76,9.47,16.9,8.79,26.37,0,12.85-6.76,25.02-18.26,31.1v.68c9.47,3.38,17.58,10.82,20.96,20.28,4.06,12.85,2.03,27.72-5.41,39.22-7.44,10.82-20.28,16.23-33.13,18.26-9.47,1.35-18.93,1.35-28.4.68-10.14-.68-19.61-3.38-28.4-7.44-1.35-.68-2.7-2.03-2.03-3.38v-17.58c.68-2.03,3.38-4.06,6.09-2.7,12.17,6.09,26.37,8.79,39.89,8.79,6.76-.68,13.52-1.35,18.93-5.41,3.38-2.7,6.09-6.76,7.44-11.49.68-2.03.68-4.73.68-6.76,0-3.38-.68-6.76-2.7-9.47-2.7-4.73-7.44-6.76-12.17-8.11-10.82-2.7-21.64-2.03-33.13-2.03-2.03,0-4.06-1.35-4.06-3.38v-14.2c-.68-2.7,1.35-5.41,3.38-5.41h18.93c4.73-.68,9.47-1.35,14.2-3.38s8.11-5.41,10.14-10.14c2.7-6.09,2.03-14.88-2.7-19.61-4.73-4.06-10.82-5.41-16.9-5.41-7.44,0-14.2,1.35-20.96,4.06-4.06,2.03-8.11,4.06-11.49,6.76-2.03,1.35-4.73,0-5.41-1.35-2.7-4.06-6.09-7.44-8.11-11.49-1.35-2.03-.68-4.73,1.35-6.09,10.82-8.11,23.67-13.52,37.19-14.2l-.68-.68Z"/>
      <path class="cls-1" d="m273.86,184.04c7.44,0,14.88-.68,22.31,1.35,6.76,1.35,13.52,4.73,18.93,8.79,4.73,3.38,7.44,8.79,9.47,14.2,1.35,4.73,2.03,10.14,2.03,14.88-.68,6.76-3.38,14.2-7.44,19.61-4.06,4.73-8.79,8.79-13.52,11.49v.68c4.06,2.7,8.79,5.41,12.17,8.79,6.09,5.41,10.82,12.17,12.85,20.28,1.35,6.76,1.35,14.2-.68,20.96-3.38,12.17-13.52,20.96-25.02,25.02-8.79,3.38-18.93,4.06-29.07,4.06-8.11-.68-16.23-2.03-22.99-5.41-5.41-2.7-10.82-6.76-14.2-11.49-3.38-4.73-6.09-10.82-6.76-16.23-2.03-10.82,0-22.31,6.76-30.43,4.06-6.09,10.14-10.82,16.9-14.2-3.38-2.7-7.44-5.41-10.14-8.79-4.06-4.73-7.44-10.82-8.79-16.9-2.03-9.47-.68-20.28,4.73-28.4,7.44-10.82,20.28-15.55,32.46-16.9h0v-1.35Zm4.06,22.31c-4.06,0-7.44,1.35-10.82,3.38-4.06,2.03-6.09,6.76-6.09,11.49,0,3.38.68,7.44,2.7,10.14,2.7,4.06,6.76,6.76,10.82,8.79,2.7,1.35,4.73,2.7,7.44,3.38,3.38-1.35,7.44-3.38,10.82-5.41,3.38-2.7,6.09-5.41,7.44-8.79.68-2.03,1.35-4.06,1.35-6.09,0-2.7,0-5.41-1.35-7.44-2.03-4.73-6.76-6.76-11.49-8.11-3.38-.68-7.44-1.35-10.82-.68h0v-.68Zm0,61.53c-6.76,3.38-13.52,6.76-17.58,12.85-5.41,7.44-5.41,19.61,1.35,26.37,4.06,3.38,9.47,5.41,14.88,5.41s11.49,0,16.9-1.35c4.73-2.03,8.79-5.41,10.82-9.47,2.03-4.06,2.03-8.79.68-13.52-1.35-4.06-4.06-7.44-7.44-9.47-4.73-4.06-10.82-6.76-16.9-8.79-1.35-.68-2.03-1.35-3.38-.68l.68-1.35Z"/>
      <path class="cls-1" d="m168.37,246.92h46.65c2.03,0,4.73.68,4.73,3.38v17.58c-.68,2.03-2.7,2.7-4.06,2.7h-46.65c-2.7,0-4.73-2.03-4.06-4.73v-14.2c-.68-2.03,1.35-4.73,3.38-4.73Z"/>
    </g>
  </g>
</svg>