<?xml version="1.0" encoding="utf-8"?>
<!-- Generator: Adobe Illustrator 27.8.1, SVG Export Plug-In . SVG Version: 6.00 Build 0)  -->
<svg version="1.1" id="Capa_1" xmlns="http://www.w3.org/2000/svg" xmlns:xlink="http://www.w3.org/1999/xlink" x="0px" y="0px"
	 viewBox="0 0 250 450" style="enable-background:new 0 0 250 450;" xml:space="preserve">
<style type="text/css">
	.st0{fill:#CCACC0;stroke:#CCACC0;stroke-width:0.35;stroke-miterlimit:22.93;}
</style>
<path class="st0" d="M245.3,445c-11.5-10.4-20.7-23-28.1-36.5c-7.4-13.5-13.2-27.9-18.4-42.3l-30.7-86.9
	c-5.3-14.4-11.2-28.5-17.8-42.3c-6.6-13.8-13.9-27.3-21.8-40.4c-15.8-26.2-34.2-50.8-54.2-74.1c-0.2-0.3-0.2-0.7,0.1-0.9
	c0.3-0.2,0.7-0.2,0.9,0c21.2,22.3,39.9,47,55.9,73.4c7.9,13.2,15.2,26.8,21.8,40.8c6.5,14,12.3,28.2,17.4,42.8
	c10.1,29,19.6,58.2,29.8,87.2c5.2,14.4,10.9,28.7,18.2,42.2c7.3,13.5,16.4,26,27.8,36.1c0.3,0.2,0.3,0.6,0.1,0.9
	C246,445.2,245.5,445.3,245.3,445L245.3,445L245.3,445z"/>
<path class="st0" d="M91.3,66.6c2.5,9,4.2,18.2,4.8,27.6c0.3,4.7,0.3,9.4,0,14.1c-0.1,2.3-0.4,4.7-0.7,7c-0.3,2.2-0.5,4.6-0.9,6.9
	c-0.4,2.4-1,4.8-2.1,7.1c-0.3,0.6-0.7,1.2-1,1.8c-0.5,0.6-0.9,1.1-1.5,1.6c-0.6,0.5-1.4,0.9-2.1,1.2c-0.8,0.1-1.7,0.3-2.4,0.2
	c-0.4-0.1-0.8-0.1-1.1-0.2l-1.1-0.4c-0.7-0.3-1.3-0.7-1.8-1.1c-1.1-0.8-2-1.7-2.8-2.6c-1.7-1.8-3-3.8-4.3-5.8c-2.6-4-4.6-8.1-7-12
	l-7.2-11.8c-4.8-7.9-9.9-15.7-13.7-24.3c-1.9-4.3-3.4-8.8-4.2-13.4c-0.2-1.2-0.5-2.3-0.3-3.7c0.1-0.7,0.4-1.5,1-2.1
	c0.6-0.6,1.5-0.8,2.1-0.8c1.3-0.1,2.4,0,3-0.5c0.6-0.4,1-1.4,1.2-2.5c0.3-1.1,0.6-2.4,1.6-3.5c1-1.1,2.6-1.4,3.8-1.3
	c2.6,0.4,4.7,1.8,6.4,3.5c1.6,1.8,3.1,3.4,4.9,4.6c0.9,0.6,1.9,1,2.9,1c1,0,1.9-0.4,2.6-1.2c0.8-0.7,1.5-1.8,2.6-2.5
	c1.1-0.7,2.3-1.1,3.6-1.2c2.5-0.2,5,0.6,7,2c2,1.5,3.5,3.5,4.5,5.6S90.7,64.3,91.3,66.6L91.3,66.6L91.3,66.6z M89.8,67
	c-0.6-2.2-1.2-4.4-2.2-6.4c-1-2-2.3-3.9-4-5.1c-1.7-1.3-3.9-2-6.1-1.8c-1.1,0.1-2.1,0.4-2.9,1c-0.9,0.5-1.5,1.4-2.4,2.3
	c-0.9,0.9-2.2,1.5-3.6,1.6c-1.3,0-2.6-0.5-3.6-1.1c-2.1-1.3-3.7-3.1-5.2-4.8c-1.5-1.5-3.5-2.7-5.5-3c-1-0.1-1.9,0.1-2.5,0.8
	C51,51,50.7,52,50.4,53.2c-0.1,0.6-0.3,1.2-0.5,1.8c-0.2,0.6-0.7,1.3-1.3,1.7c-0.6,0.5-1.4,0.6-2,0.7c-0.6,0.1-1.2,0.1-1.7,0.1
	c-1,0.1-1.4,0.5-1.5,1.4c-0.1,0.9,0.2,2,0.4,3.1c0.9,4.4,2.4,8.8,4.3,12.9c3.8,8.3,9.1,15.9,14.1,23.7l7.5,11.7
	c2.6,3.9,4.8,8.1,7.3,11.8c1.3,1.9,2.6,3.7,4,5.3c1.4,1.6,3.1,3,4.6,3c0.4,0.1,0.7-0.1,1-0.1c0.3-0.2,0.6-0.2,0.9-0.5
	c0.3-0.2,0.6-0.6,0.8-0.9c0.2-0.4,0.5-0.8,0.7-1.2c0.8-1.8,1.3-4,1.7-6.2c0.4-2.2,0.6-4.4,0.9-6.8c0.3-2.3,0.6-4.5,0.8-6.8
	c0.4-4.5,0.7-9.1,0.7-13.7C93.1,85.1,92.1,75.9,89.8,67L89.8,67L89.8,67z"/>
<path class="st0" d="M41.9,61.2c-1-1.3-1.8-2.5-2.7-3.7c-0.8-1.2-1.9-2.1-3.2-2.9c-1.2-0.8-2.6-1.3-3.9-1.4c-1.4,0-2.6,0.4-3.6,1.4
	c-0.5,0.5-0.8,1-1,1.6c-0.2,0.6-0.3,1.3-0.2,2c0.1,1.4,0.6,2.9,0.8,4.5c0.1,0.8,0.2,1.7,0.1,2.5C28,66.1,27.6,67,27,67.7
	c-0.6,0.7-1.5,1.2-2.2,1.5c-0.8,0.3-1.6,0.4-2.4,0.6c-1.5,0.3-3,0.5-3.7,1.4c-0.4,0.4-0.5,0.9-0.5,1.5c0,0.5,0.3,1.1,0.6,1.7
	c0.7,1.2,1.7,2.4,2.6,3.8c0.4,0.7,0.9,1.5,1,2.5c0.2,0.9,0,2.1-0.5,2.9c-1.1,1.7-2.5,2.4-3.1,3.4c-0.6,1-0.7,2.3-0.5,3.6
	c0.5,2.6,2.7,4.6,5,6.4c4.8,3.7,9.7,7.3,14.8,10.7c5,3.4,10.2,6.7,15.4,9.8c5.2,3.1,10.5,6,15.9,8.9c2.8,1.5,5.3,3.3,7.9,4.7
	c2.6,1.4,5.3,2.3,8.1,1.7c0.4-0.1,0.9,0.2,0.9,0.6c0.1,0.4-0.1,0.8-0.5,0.9c-1.6,0.6-3.3,0.7-5,0.5c-1.7-0.2-3.2-0.7-4.7-1.3
	c-3-1.2-5.6-2.9-8.2-4.2c-5.5-2.6-11-5.5-16.3-8.7c-5.3-3.2-10.5-6.6-15.5-10.1c-5-3.6-9.9-7.4-14.6-11.4c-1.2-1-2.4-2.1-3.4-3.4
	c-1-1.3-1.9-2.9-2.2-4.7c-0.3-1.7-0.1-3.7,0.9-5.3c1.1-1.6,2.6-2.3,3.2-3.3c0.5-0.9,0.3-2-0.4-3.3c-0.7-1.2-1.7-2.4-2.5-3.9
	c-0.4-0.8-0.8-1.6-0.8-2.6c0-1,0.4-2,1-2.7c0.7-0.7,1.6-1.1,2.4-1.3c0.8-0.2,1.6-0.4,2.3-0.5c1.5-0.2,2.9-0.6,3.7-1.5
	c0.4-0.5,0.6-1,0.8-1.6c0.1-0.6,0-1.3,0-2c-0.2-1.4-0.7-2.9-0.8-4.6c-0.1-0.8,0-1.7,0.3-2.6c0.3-0.8,0.8-1.6,1.4-2.2
	c1.2-1.3,3-1.9,4.7-1.8c1.7,0.1,3.3,0.8,4.7,1.6c1.4,0.8,2.6,1.9,3.6,3.2c0.9,1.2,1.8,2.5,2.7,3.6l0,0c0.3,0.3,0.2,0.8-0.1,1.1
	C42.7,61.7,42.2,61.6,41.9,61.2L41.9,61.2L41.9,61.2z"/>
<path class="st0" d="M30.8,104.7c-1.4,0.3-2.8,0.5-4.3,0.4c-1.5-0.1-2.9-0.6-4.2-1.4c-1.2-0.8-2.3-1.7-3.4-2.5
	c-0.5-0.4-1.1-0.8-1.6-1.1c-0.5-0.3-1.1-0.5-1.7-0.5c-1.2-0.2-2.5,0.1-3.1,0.8c-0.7,0.7-0.6,2-0.5,3.4c0,0.7,0.1,1.4-0.1,2.3
	c-0.1,0.8-0.8,1.7-1.6,2.1c-0.9,0.4-1.7,0.3-2.4,0.3c-0.7,0-1.3-0.1-1.8,0.1c-1,0.3-1.8,1.2-2.1,2.3c-0.3,1.1-0.2,2.2,0.3,3.4
	c1,2.2,3,4.2,4.9,5.9c4,3.4,8.9,5.7,14,7.5c5.1,1.8,10.3,3.1,15.6,4.2c5.3,1.1,10.6,1.9,16,2.3c5.4,0.4,10.8,0.7,16.2,0.8
	c2.7,0,5.4,0,8-0.2c2.6-0.2,5.3-0.5,7.5-1.5l0.1-0.1c0.4-0.2,0.9,0,1.1,0.4c0.2,0.4,0.1,0.8-0.2,1c-1.2,0.9-2.6,1.5-4,1.9
	c-1.4,0.4-2.8,0.8-4.1,1c-2.8,0.5-5.5,0.7-8.3,0.9c-5.5,0.2-11,0.1-16.6-0.4c-5.5-0.5-11-1.4-16.4-2.6c-5.4-1.3-10.7-2.9-15.9-4.9
	c-5.1-2.1-10.2-4.7-14.4-8.5c-1.1-0.9-2-2-2.9-3c-0.9-1.1-1.8-2.3-2.3-3.7c-1.2-2.7-0.3-6.9,3.1-8c0.9-0.2,1.6-0.1,2.3-0.1
	c0.7,0.1,1.2,0.1,1.6-0.1c0.4-0.2,0.7-0.5,0.8-1c0.1-0.5,0.1-1.2,0.1-1.8c0-0.7-0.1-1.4,0-2.2c0.1-0.8,0.4-1.7,1-2.3
	c1.2-1.3,3-1.5,4.4-1.3c0.8,0.1,1.5,0.3,2.2,0.7c0.6,0.3,1.2,0.8,1.8,1.2c1.1,0.8,2.1,1.8,3.2,2.4c2.2,1.3,4.8,1.3,7.4,0.7
	c0.4-0.1,0.9,0.2,1,0.6C31.4,104.1,31.2,104.5,30.8,104.7L30.8,104.7L30.8,104.7L30.8,104.7L30.8,104.7z"/>
<path class="st0" d="M127.9,22.1c1.7,8.7,2.7,17.4,3.3,26.2c0.6,8.8,0.8,17.6,1.1,26.3c0.7,17.5,2.8,34.9,5.4,52.3
	c1.3,8.7,2.7,17.3,4.1,26l4,26c1.3,8.7,2.6,17.4,3.6,26.1c0.9,8.8,1.5,17.6,0.6,26.5c0,0.4-0.4,0.7-0.8,0.7c-0.4,0-0.7-0.4-0.7-0.8
	v0c-0.2-17.4-3.8-34.6-6.2-52c-2.5-17.4-5.1-34.7-7.3-52.2c-2.1-17.4-3.9-35-4.3-52.6c-0.6-17.5-0.6-35.2-4.3-52.3
	c-0.1-0.4,0.2-0.8,0.6-0.9S127.8,21.6,127.9,22.1L127.9,22.1L127.9,22.1z"/>
<path class="st0" d="M113.7,26.7c-3.2,26.2-0.9,52.8,4.8,78.4c1.4,6.4,3.1,12.8,5,19c2,6.3,3.8,12.6,6.1,18.8
	c2.3,6.1,4.6,12.3,8.2,17.5c0.9,1.3,1.9,2.4,3,3.1c0.5,0.4,1.1,0.5,1.5,0.6c0.5,0,0.8-0.1,1.3-0.5c0.9-0.7,1.7-2.1,2.3-3.5
	c0.6-1.4,1.1-2.9,1.6-4.5c0.9-3.1,1.5-6.3,2.2-9.6c0.8-3.2,1.4-6.4,1.9-9.6c1.1-6.5,1.6-13,1.7-19.6c0.2-13.1-1.6-26.2-5.3-38.8
	c-1.8-6.3-4.2-12.5-5.6-19.1c-1.4-6.5-1.8-13.2-3.2-19.6c-1.5-6.4-3.6-12.7-6.1-18.7c-1.3-3-2.7-6-4.4-8.7c-0.9-1.4-1.8-2.7-2.9-3.8
	c-0.6-0.5-1.2-1-1.8-1.3c-0.6-0.3-1.2-0.3-1.7,0.1l0.1,0c-2.9,2.2-4.9,5.4-6.1,8.9C114.8,19.2,114.2,22.9,113.7,26.7L113.7,26.7
	L113.7,26.7z M112.2,26.5c0.5-3.8,1.2-7.6,2.5-11.3c1.3-3.6,3.4-7.2,6.7-9.6l0,0l0,0c0.9-0.6,2.2-0.6,3-0.1c0.9,0.4,1.6,1,2.2,1.6
	c1.2,1.2,2.2,2.7,3.1,4.1c1.8,2.9,3.2,5.9,4.5,8.9c2.6,6.1,4.8,12.4,6.3,18.9c1.5,6.5,2,13.2,3.4,19.5c1.4,6.4,3.8,12.5,5.8,18.9
	c3.9,12.7,5.9,26,5.9,39.4c0,6.7-0.5,13.3-1.4,19.9c-0.5,3.3-1.1,6.6-1.8,9.8c-0.6,3.2-1.2,6.5-2.1,9.8c-0.4,1.6-1,3.3-1.6,4.9
	c-0.7,1.6-1.5,3.3-3.1,4.7c-0.4,0.4-0.9,0.7-1.5,0.9c-0.6,0.2-1.2,0.3-1.8,0.3c-1.2-0.1-2.3-0.4-3.1-1c-1.7-1.1-2.9-2.5-3.9-3.9
	c-2.1-2.8-3.6-5.9-5-8.9c-1.4-3.1-2.6-6.2-3.8-9.3c-2.3-6.3-4.2-12.6-6.2-18.9c-2-6.3-3.7-12.8-5.2-19.3
	C109.1,79.8,108.7,52.8,112.2,26.5L112.2,26.5L112.2,26.5z"/>
<path class="st0" d="M165.5,271c-5.8-10.3-13.7-19.3-22.8-26.7c-9.2-7.4-20-12.3-30.3-18.4c-5.2-3.1-10-6.8-14.5-10.8
	c-4.5-4-8.7-8.3-12.6-12.8c-7.9-9-14.8-18.8-20.9-29c-0.2-0.4-0.1-0.8,0.3-1.1c0.3-0.2,0.8-0.1,1,0.2c7.5,9.2,14.6,18.7,22.3,27.5
	c3.8,4.4,7.9,8.7,12.2,12.7c4.3,4,8.8,7.7,13.7,10.9c9.8,6.4,20.7,11.8,29.9,19.5c9.3,7.5,17.1,16.9,23.1,27.2
	c0.2,0.4,0.1,0.8-0.3,1C166.2,271.5,165.7,271.4,165.5,271L165.5,271L165.5,271L165.5,271z"/>
<path class="st0" d="M148.4,248.2c-1.4-0.1-3-0.2-4.6-0.5l-1.2-0.2l-1-0.2l-2-0.4c-2.7-0.6-5.4-1.3-8.1-2
	c-5.4-1.5-10.6-3.3-15.8-5.4c-5.2-2.1-10.2-4.6-15.1-7.4c-4.8-2.8-9.5-6-13.8-9.6c-4.3-3.6-8.3-7.6-11.9-12c-3.6-4.3-6.7-9-9.6-13.7
	c-2.9-4.7-5.9-9.4-8.4-14.5c-1.2-2.6-2.3-5.2-3-8.1c-0.3-1.4-0.6-2.8-0.7-4.3c-0.1-1.4-0.2-3,0.3-4.6c0.2-0.8,0.6-1.6,1.1-2.3
	c0.5-0.7,1-1.3,1.7-1.8c0.7-0.5,1.5-1,2.6-1.1c0.5-0.1,1.2,0.1,1.5,0.2l1,0.3c2.7,0.9,5.3,2.1,7.7,3.6c4.9,2.9,9,7.1,12.2,11.8
	c1.6,2.3,3.1,4.6,4.8,6.7c1.7,2.1,3.5,4.1,5.6,5.9c4.1,3.6,8.7,6.7,13.2,9.7c9.2,6.2,17.8,13.4,25.4,21.4c3.8,4,7.4,8.3,10.7,12.7
	c1.7,2.2,3.3,4.5,4.6,7c0.7,1.2,1.3,2.5,1.8,3.8c0.3,0.7,0.5,1.3,0.7,2l0.3,1.1C148.5,247.1,148.5,247.7,148.4,248.2L148.4,248.2
	L148.4,248.2z M147.3,247.1c-0.2-0.2-0.4-0.2-0.4-0.3l-0.3-0.9c-0.2-0.6-0.4-1.3-0.7-1.9c-0.5-1.2-1.1-2.5-1.7-3.7
	c-1.3-2.4-2.8-4.6-4.5-6.8c-3.3-4.4-6.9-8.6-10.7-12.6c-7.6-8-16.1-15-25.2-21.1c-4.6-3.1-9.3-6-13.6-9.7c-2.1-1.8-4.1-3.8-5.9-6.1
	c-1.8-2.2-3.3-4.5-4.9-6.7c-3.1-4.5-7-8.2-11.7-10.9c-2.3-1.4-4.8-2.4-7.3-3.3c-0.6-0.2-1.4-0.5-1.5-0.4c-0.3,0-0.7,0.2-1.2,0.6
	s-0.8,0.8-1.1,1.2c-0.3,0.4-0.5,0.9-0.6,1.5c-0.3,1.1-0.3,2.3-0.1,3.6c0.1,1.3,0.4,2.6,0.7,3.9c0.7,2.6,1.7,5,2.9,7.4
	c2.4,4.8,5.6,9.4,8.5,14c3,4.6,6,9.2,9.5,13.3c3.4,4.2,7.3,8,11.5,11.5c2.1,1.8,4.3,3.3,6.4,5c2.2,1.5,4.5,3.1,6.8,4.4
	c4.7,2.8,9.5,5.3,14.5,7.4c5,2.2,10.1,4.2,15.3,5.8c2.6,0.8,5.2,1.7,7.9,2.4l3.8,1.1C144.9,246.2,146,246.7,147.3,247.1L147.3,247.1
	L147.3,247.1z"/>
<path class="st0" d="M199.7,113.1c1.7,15.6,1.3,31.3-0.7,46.7c-1.8,15.5-4.9,30.8-8.1,46l-4.9,22.8l-2.4,11.4l-2.2,11.4
	c-2.8,15.2-4.9,30.5-5.8,46c0,0.4-0.4,0.7-0.8,0.7c-0.4,0-0.7-0.3-0.7-0.7c-0.9-15.6,0.9-31.3,3.8-46.7l2.3-11.5l2.5-11.4l5.5-22.7
	c3.7-15.1,7.1-30.3,9.1-45.6c2-15.4,2.7-31,0.8-46.3c-0.1-0.4,0.2-0.8,0.7-0.8C199.3,112.3,199.7,112.6,199.7,113.1L199.7,113.1
	L199.7,113.1z"/>
<path class="st0" d="M176.3,273.3c-0.9-2.4-1.9-5.1-2.7-7.9c-0.7-2.5-1.4-4.9-2-7.4c-1.2-5-2.2-10-2.9-15.1
	c-1.5-10.1-2-20.4-1.5-30.7c0.4-10.2,1.3-20.4,2.7-30.5c1.4-10.1,3.2-20.1,5.6-30.1l0,0.2c0.8-5.4,1.8-10.8,3.1-16.1
	c1.4-5.3,3-10.6,4.9-15.7c0.9-2.6,1.9-5.1,3-7.6c1.1-2.5,2.1-5,3.6-7.5c1.4-2.5,3.4-4.8,5.9-6.4c1.2-0.8,2.5-1.5,4-2
	c1.5-0.4,3.1-0.6,4.8-0.2c0.3,0.1,0.6,0.3,0.8,0.6c4.2,6.9,6.8,14.7,7.9,22.7c1.1,7.9,0.8,16,0.2,23.8c-0.5,7.9-2.2,15.7-3.1,23.4
	c-0.4,3.9-0.7,7.8-0.4,11.6c0.2,3.9,0.9,7.7,1.6,11.6s1.4,7.8,1.8,11.7c0.4,4,0.4,8,0,11.9c-0.8,7.9-3.1,15.7-6.5,22.9
	c-1.7,3.6-3.6,7.1-5.9,10.4c-2.3,3.3-4.8,6.3-7.5,9.2c-2.6,3-5.4,5.8-8.2,8.6l-4.2,4.1l-2.1,2.1c-0.3,0.3-0.8,0.8-1.3,1.2
	C177.3,272.6,176.8,273,176.3,273.3L176.3,273.3L176.3,273.3z M176.7,271.8c0.2-0.4,0.4-0.7,0.6-1c0.2-0.3,0.4-0.5,0.8-0.9l2.1-2
	l4.2-4.1c2.8-2.8,5.6-5.6,8.2-8.5c5.3-5.8,9.9-12.1,13.1-19.3c3.3-7.1,5.5-14.7,6.2-22.4c0.4-3.9,0.4-7.8-0.1-11.6
	c-0.4-3.9-1.1-7.7-1.8-11.6c-0.7-3.9-1.4-7.8-1.7-11.8c-0.3-4-0.1-8,0.3-11.9c0.9-7.9,2.4-15.6,2.8-23.4c0.5-7.8,0.7-15.7-0.5-23.3
	c-1.1-7.7-3.7-15.1-7.8-21.5l0.8,0.6c-1.9-0.6-4.4,0.4-6.4,1.8c-2.1,1.4-3.7,3.3-4.9,5.6c-1.3,2.2-2.3,4.7-3.3,7.2
	c-1,2.5-2,5-2.9,7.5c-3.6,10.1-6.1,20.6-7.6,31.2l0,0.1v0c-2.3,9.8-4,19.8-5.4,29.8c-1.3,10-2.4,20.1-2.9,30.2
	c-0.5,10.1-0.3,20.1,0.9,30.2c0.6,5,1.4,10,2.4,14.9c0.5,2.5,1.1,4.9,1.6,7.4C176,267.1,176.3,269.3,176.7,271.8L176.7,271.8
	L176.7,271.8z"/>
<path class="st0" d="M65.4,242.7c8,10.5,17.8,19.5,28.2,27.6c10.4,8.1,21.6,15.2,32.9,22.1l16.9,10.4l8.4,5.4l8.3,5.6
	c10.9,7.6,21.4,16,30.2,26c0.2,0.3,0.2,0.7-0.1,0.9c-0.2,0.2-0.6,0.2-0.9,0c-9.8-8.9-20.3-16.8-31.1-24.4l-8.2-5.6l-8.3-5.5
	l-16.6-10.9c-11.1-7.3-22.1-14.7-32.5-23c-10.4-8.2-20.1-17.4-28.4-27.9c-0.2-0.3-0.2-0.7,0.1-0.9S65.2,242.4,65.4,242.7L65.4,242.7
	L65.4,242.7z"/>
<path class="st0" d="M173.4,325.7c-1.2-1.8-2.4-3.2-3.4-4.9c-1.1-1.8-2.2-3.7-3.4-5.5c-2.4-3.6-4.9-7.1-7.5-10.5
	c-5.3-6.8-11.2-13-17.5-18.8c-6.3-5.9-13-11.3-19.8-16.5c-6.8-5.2-13.9-10.3-21.1-14.8h0l-0.1-0.1c-7.2-5.5-15.1-10.4-23.3-14.4
	c-2.1-1-4.1-1.9-6.2-2.8c-2.1-0.9-4.2-1.8-6.3-2.4c-2.1-0.6-4.2-0.8-6.3-0.4c-2.1,0.4-4.2,1.2-5,2.7l0.1-0.8
	c1.4,6.4,4.3,12.4,8.2,17.7c3.9,5.3,8.7,10,13.7,14.4c4.9,4.5,10.5,8.2,15.7,12.5c2.6,2.1,5.1,4.5,7.3,7.1c2.2,2.6,4.1,5.4,6,8.1
	c1.9,2.8,3.8,5.5,5.8,8.1c2.1,2.6,4.4,5,6.9,7.1c5.1,4.2,11,7.5,17.2,9.8c6.2,2.5,12.8,3.5,19.5,3.8c3.3,0.2,6.7,0.2,10,0.2l5,0
	l2.5,0c0.5,0,0.7,0,1,0C172.7,325.5,173,325.6,173.4,325.7L173.4,325.7L173.4,325.7z M174.5,326.4c-0.5,0.1-1,0.2-1.6,0.3
	c-0.6,0.1-1.1,0-1.5,0.1l-2.5,0h-5c-3.4,0-6.7-0.1-10.1-0.3c-3.4-0.2-6.7-0.5-10.1-1.1c-3.4-0.6-6.6-1.6-9.8-2.7
	c-6.3-2.4-12.4-5.6-17.6-10c-2.6-2.2-5-4.6-7.1-7.2c-2.1-2.6-4-5.4-5.9-8.2c-1.9-2.8-3.8-5.5-6-8c-2.2-2.5-4.6-4.7-7.2-6.8
	c-5.2-4.1-10.9-7.8-15.9-12.3c-5.1-4.4-10.1-9-14.2-14.5c-4.1-5.4-7.2-11.7-8.8-18.4c-0.1-0.3,0-0.6,0.1-0.8c0.7-1.3,1.8-2.2,3-2.8
	c1.2-0.6,2.4-1,3.6-1.2c2.4-0.5,5.1-0.3,7.4,0.4c2.4,0.6,4.5,1.5,6.7,2.4c2.2,0.9,4.3,1.8,6.4,2.8c4.2,2,8.3,4.2,12.3,6.6
	c4,2.4,7.8,5.1,11.6,7.9l-0.1-0.1c7.4,4.6,14.5,9.6,21.4,14.9c6.9,5.3,13.6,10.9,19.9,16.9c6.4,5.9,12.3,12.5,17.5,19.5
	c2.6,3.5,5,7.1,7.3,10.9c1.1,1.9,2.2,3.8,3.2,5.7C172.6,322.1,173.6,324.4,174.5,326.4L174.5,326.4L174.5,326.4z"/>
<path class="st0" d="M21.5,81.9c3.5-0.7,7.1,0.4,10,2.2c3,1.7,5.5,4,7.9,6.3c4.8,4.7,8.8,10,13.1,14.9c4.2,5,9.3,9.2,14.1,13.8
	l14.6,13.3c0.6,0.5,0.6,1.5,0.1,2.1c-0.3,0.3-0.6,0.4-0.9,0.5h-0.1c-6.6,0.5-13.1-0.7-19.2-2.3c-3.1-0.9-6.1-1.8-9.1-2.8
	s-6-1.9-9-3.1c-6-2.3-11.7-5.5-16.9-9.4c-1.3-1-2.5-2-3.8-3c-1.2-1.1-2.3-2.1-3.5-3c-2.3-1.9-4.9-3.4-7.8-3.2h0
	c-0.4,0-0.8-0.3-0.9-0.7c0-0.4,0.2-0.8,0.6-0.8c1.7-0.4,3.5-0.2,5.2,0.3c1.6,0.5,3.1,1.4,4.5,2.3c2.7,1.9,5,3.8,7.6,5.5
	c5.1,3.4,10.6,6.3,16.3,8.6c2.9,1.2,5.8,2.2,8.8,3.1c3,1,6,2,8.9,2.9c5.9,1.8,12,3.1,18,2.8l-0.9,2.5L65,120.7
	c-4.7-4.6-9.7-9.1-13.9-14.2c-4.3-5.1-8.3-10.3-12.9-14.9c-2.3-2.3-4.7-4.5-7.5-6.1c-2.8-1.6-5.9-2.5-8.9-1.9
	c-0.4,0.1-0.9-0.2-1-0.6C20.8,82.5,21,82,21.5,81.9L21.5,81.9L21.5,81.9z"/>
<path class="st0" d="M27.5,65.3c3.6-0.1,6.8,1.7,9.4,3.8c2.5,2.2,4.5,5,6.4,7.6c3.9,5.3,7.8,10.5,11.8,15.7
	c4,5.2,7.9,10.4,11.7,15.7c3.8,5.3,7.4,10.8,10.4,16.6c0.2,0.4,0.1,0.9-0.3,1.1c-0.3,0.2-0.7,0.1-1-0.2c-4.5-4.8-8.4-10-12.2-15.4
	c-3.8-5.3-7.4-10.8-11-16.3c-3.6-5.5-7.2-10.9-10.9-16.3c-1.9-2.7-3.7-5.4-6-7.5c-2.3-2.1-5.3-3.5-8.4-3.4c-0.4,0-0.8-0.3-0.8-0.8
	C26.6,65.7,27,65.3,27.5,65.3L27.5,65.3L27.5,65.3z"/>
<path class="st0" d="M48.8,54.8c1.9,0.6,3.5,1.7,4.9,2.9c1.4,1.2,2.6,2.6,3.7,4.1c2.2,3,3.6,6.4,4.7,9.8c1.1,3.4,2.3,6.7,3.6,10
	c1.3,3.3,2.8,6.5,4.3,9.8c3,6.5,6.1,12.9,8.7,19.6c1.3,3.3,2.5,6.8,3.4,10.3c1,3.5,1.3,7,3.1,9.8l0,0c0.2,0.4,0.1,0.9-0.2,1.1
	c-0.3,0.2-0.7,0.2-1-0.1c-1.5-1.3-2.5-3.1-3.2-4.8c-0.7-1.7-1.3-3.4-1.9-5.1c-1.2-3.3-2.4-6.6-3.7-9.9l-7.9-19.8
	c-1.3-3.3-2.5-6.7-3.7-10.1c-1.2-3.4-2.2-6.9-3.2-10.2c-1.1-3.4-2.3-6.7-4.3-9.5c-2-2.8-4.6-5.4-7.7-6.3h0c-0.4-0.1-0.7-0.6-0.5-1
	C47.9,54.9,48.3,54.7,48.8,54.8L48.8,54.8L48.8,54.8z"/>
<path class="st0" d="M71,56.5c3,1.8,5,4.8,6.3,7.9c1.3,3.1,2,6.4,2.4,9.7c0.5,3.3,0.4,6.7,0.4,9.9c0.1,3.2,0.5,6.4,1.1,9.5
	c1.2,6.3,3.2,12.4,4.9,18.7c0.9,3.1,1.7,6.3,2.4,9.5c0.3,1.6,0.7,3.2,0.6,5.1c0,0.9-0.3,1.9-0.5,2.6c-0.2,0.8-0.4,1.4-0.3,2v0.1
	c0.1,0.4-0.2,0.8-0.7,0.9c-0.3,0.1-0.7-0.1-0.8-0.4c-0.5-1-0.5-2-0.4-2.9c0.1-0.9,0.1-1.5,0-2.2c-0.2-1.4-0.7-2.9-1.2-4.4
	c-0.9-3.1-1.8-6.2-2.7-9.3c-1.8-6.3-3.3-12.7-4.1-19.3c-0.4-3.3-0.5-6.6-0.4-9.9c0.1-3.3,0.5-6.5,0.1-9.7c-0.4-3.2-0.9-6.4-2.2-9.3
	c-1.2-2.9-3.1-5.6-5.7-7.1c-0.4-0.2-0.5-0.7-0.3-1.1S70.6,56.3,71,56.5L71,56.5L71,56.5L71,56.5z"/>
</svg>
