<?xml version="1.0" encoding="UTF-8"?>
<svg id="num" xmlns="http://www.w3.org/2000/svg" viewBox="0 0 400 400">
  <defs>
    <style>
      .cls-1 {
        fill: #9ca3af;
        stroke-width: 5px;
      }

      .cls-1, .cls-2 {
        stroke: #9ca3af;
        stroke-miterlimit: 10;
      }

      .cls-2 {
        fill: #fff;
        stroke-width: 6px;
      }
    </style>
  </defs>
  <path class="cls-1" d="m268.79,322.35c33.91-46.46,68.14-109.55,68.14-175.41,0-36.68-14.18-71.08-40.1-96.83-25.92-25.92-60.32-40.1-96.83-40.1s-70.91,14.18-96.83,40.1c-25.92,25.92-40.1,60.32-40.1,96.83,0,63.9,31.95,125.36,65.05,171.33l2.93,4.08,6.19,8.31c16.95,22.17,33.26,40.1,44.83,51.84,4.73,4.89,11.09,7.5,17.77,7.5s13.04-2.61,17.77-7.5c11.41-11.74,27.88-29.67,44.83-51.84l6.19-8.31h.16Z"/>
  <path class="cls-2" d="m200,229.83c101.35-1.78,101.33-152.45,0-154.22-101.34,1.78-101.33,152.45,0,154.22Z"/>
</svg>