<?xml version="1.0" encoding="UTF-8"?>
<svg id="num" xmlns="http://www.w3.org/2000/svg" viewBox="0 0 400 400">
  <defs>
    <style>
      .cls-1 {
        fill: #9ca3af;
        stroke-width: 0px;
      }
    </style>
  </defs>
  <path class="cls-1" d="m302.14,101.16c0,9.88-3.29,23.06-13.18,34.05-6.59,7.69-16.47,13.18-26.36,18.67-3.29,2.2-6.59,4.39-9.88,5.49h0c-14.28,8.79-23.06,24.16-23.06,41.73s8.79,32.95,23.06,41.73h0c3.29,2.2,6.59,4.39,9.88,5.49,9.88,5.49,19.77,10.98,26.36,18.67,9.88,10.98,12.08,24.16,13.18,34.05v37.34H95.66v-37.34c0-9.88,3.29-23.06,13.18-34.05,6.59-7.69,16.47-13.18,26.36-18.67,3.29-2.2,6.59-4.39,9.88-5.49h0c14.28-8.79,23.06-24.16,23.06-41.73s-8.79-32.95-23.06-41.73h0c-3.29-2.2-6.59-4.39-9.88-5.49-9.88-5.49-19.77-10.98-26.36-18.67-9.88-10.98-12.08-24.16-13.18-34.05v-37.34h206.47v37.34Zm40.64-42.83V14.39c0-2.2-2.2-4.39-4.39-4.39H61.62c-2.2,0-4.39,2.2-4.39,4.39v43.93c0,2.2,2.2,4.39,4.39,4.39h15.38v38.44c1.1,18.67,6.59,34.05,17.57,46.13,8.79,9.88,20.87,16.47,31.85,21.97,3.29,2.2,6.59,3.29,9.88,5.49h0c8.79,5.49,14.28,15.38,14.28,25.26s-5.49,19.77-14.28,25.26h0c-3.29,2.2-6.59,3.29-9.88,5.49-10.98,6.59-23.06,13.18-31.85,21.97-10.98,12.08-16.47,27.46-17.57,46.13v38.44h-15.38c-2.2,0-4.39,2.2-4.39,4.39v43.93c0,2.2,2.2,4.39,4.39,4.39h276.76c2.2,0,4.39-2.2,4.39-4.39v-43.93c0-2.2-2.2-4.39-4.39-4.39h-15.38v-38.44c-1.1-18.67-6.59-34.05-17.57-46.13-8.79-9.88-20.87-16.47-31.85-21.97-3.29-2.2-6.59-3.29-9.88-5.49h0c-8.79-5.49-14.28-15.38-14.28-25.26s5.49-19.77,14.28-25.26h0c3.29-2.2,6.59-3.29,9.88-5.49,10.98-6.59,23.06-13.18,31.85-21.97,10.98-12.08,16.47-27.46,17.57-46.13v-38.44h15.38c2.2,0,4.39-2.2,4.39-4.39Z"/>
  <g id="Capa_1">
    <path class="cls-1" d="m186.27,235.69c-21.97,8.79-46.13,19.77-56.01,30.75-5.49,5.49-6.59,14.28-7.69,19.77v23.06h154.86v-23.06c0-5.49-2.2-14.28-7.69-19.77-9.88-10.98-34.05-21.97-56.01-30.75-8.79-4.39-19.77-4.39-28.55,0h1.1Z"/>
    <path class="cls-1" d="m193.96,147.83c1.1,3.29,3.29,5.49,6.59,5.49,2.2,0,4.39-2.2,5.49-4.39,4.39-6.59,10.98-12.08,18.67-15.38,12.08-4.39,29.65-10.98,38.44-20.87-13.18,2.2-26.36-1.1-39.54-5.49-15.38-5.49-30.75-13.18-47.23-14.28-15.38-2.2-32.95,2.2-42.83,14.28,14.28,13.18,31.85,20.87,43.93,26.36,7.69,3.29,13.18,8.79,17.57,15.38l-1.1-1.1Z"/>
  </g>
</svg>