<?xml version="1.0" encoding="UTF-8"?>
<svg id="Capa_1" data-name="Capa 1" xmlns="http://www.w3.org/2000/svg" viewBox="0 0 271.28 342.22">
  <defs>
    <style>
      .cls-1 {
        fill: #bf9b2d;
        stroke-width: 0px;
      }
    </style>
  </defs>
  <g id="_050505ff" data-name="#050505ff">
    <path class="cls-1" d="m198.01,3.23c13.77-6.88,29.4-.58,43.91-.93.25,8.96.11,17.92.02,26.88-2.4.38-4.55.04-4.21-2.88-1.94-18.56-28.05-23.61-40.06-11.45-8.8,8.86-8.72,24.49.66,32.97,11.3,8.69,22.39,17.64,33.68,26.35,7.15,5.41,13.87,11.54,19.28,18.74,13.79,18.25,13.1,46.57-4.26,62.28-19.52,17.51-52.05,17.95-72.06.95-2.17,2.42-7.63,3.91-6.81,7.77,11.29,8.47,23.94,17.24,38.83,16.29,6.26-3.59,5,1.17,4.89,3.77-15.85,4.32-33.76,3.07-47.83-5.88-2.2-.65-4.19-3.58-6.65-2.62-9.24,15.5-15.48,32.53-23.36,48.72-12.29,27.02-24.68,53.98-37.04,80.96-4.78,10.96-10.46,21.56-13.87,33.07,1.27,4.93-2.51,4.01-4.85,3.78-16.64-38.32-33.48-76.56-50.26-114.82-3.62-7.41-5.85-15.56-10.73-22.29-4.05-5.51-10.79-7.36-17.29-7.92v-3.8c16.33.08,32.67-.12,49,.07.06,1.22,0,2.44-.12,3.66-3.03.72-6.61.79-8.68,3.46-3.46,4.52.33,10.83,2.08,15.52,12.56,31.44,25.17,62.86,37.7,94.32.59,1.02.82,2.4,1.9,3.04,16.46-38.7,32.55-77.57,48.81-116.37,3.68-9.43,8.47-18.43,14.32-26.7.81-1.46,2.57-2.83,1.8-4.68-8.12-5.5-13.6-13.86-20.24-20.9-18.71-20.29-36.61-41.35-55.8-61.18-2.16-3.76-9.36-3.7-7.77-9.15,8.05-.4,16.31.66,24.11-1.93,8.95-2.17,16.57-9.2,18.82-18.23,2.96-11.95,1.24-25.57-6.14-35.72-10.71-10.8-27.07-6.52-40.54-7.06-.27.27-.83.81-1.11,1.09-.29,38.91-.14,77.85-.07,116.78-.79,7.07,3.54,15.28,11.33,15.46,5.68-2.4,4.49,1.96,4.59,4.47-14,.21-28-.01-41.99.08-6.29,3.52-4.96-1.14-4.89-3.76,3.57-.72,7.21-1.17,10.63-2.48,3.57-2.75,5.31-7.35,5.3-11.76-.12-36.67.06-73.35-.09-110.03.74-5.79-3.22-11.24-8.22-13.69-3.55-1.24-11.18,2.45-7.71-5.21,14.65-.33,29.32.06,43.98-.12,14.85.22,32.22.21,43.32,11.71,15.28,14.88,13.21,40.47.77,56.39-5.41,7.59-14.47,11.03-23.21,13,13.89,15.13,27.61,30.44,41.37,45.69,9.09,8.23,16.19,18.56,25.71,26.25,3.37-1.9,7.44-3.35,10.08-6.01-5.25-7.9-7.97-17.48-7.04-27,.1-12.08,6.87-22.71,14.18-31.81,1.28.64,2.49,1.41,3.72,2.15-3.62,6.42-7.65,12.8-9.46,20.04-3.52,11.37-.52,24.23,6.73,33.49,7.21-1.51,14.31-3.86,21.83-2.93,6.29-3.56,4.93,1.29,4.93,3.92-6.77.81-13.67,1.55-19.97,4.35.71,1.25,1.72,2.18,3.04,2.78,12.02,6.21,27,6.28,38.99-.01,8.84-3.93,14.77-12.57,17.44-21.62,3.24-14.24-2.77-29.65-13.72-39.04-14.13-11.23-28.48-22.18-42.5-33.54-16.88-16.08-11.24-48.24,10.8-56.73Z"/>
    <path class="cls-1" d="m213.35,190.73c8.87-.83,18.1-1.43,26.75,1.23,13.88,3.2,25.41,14.32,29.04,28.13,2.94,11.38,3.17,23.93-1.31,34.96-5.43,15.36-21.42,26.51-37.82,25.18-13.69,1.77-28.44-8.55-28.93-22.85,1.18-.18,3.5-2.24,4.06-.33,3.47,13.9,22.3,17.79,33.56,10.81,11.58-6.52,15.34-21.3,14.36-33.68.82-12.9-5.38-27.16-17.72-32.39-13.29-5.32-27.75-1.97-41.27.62-.18,39.93,0,79.86-.09,119.79.27,5.23,3.34,10.64,8.32,12.65,2.57,1.73,11.77-2.76,7.7,5.3-15.67.04-31.33.09-46.99-.02-3.72-8.52,4.92-3.27,8.33-5.58,5.41-2.52,7.97-8.64,7.62-14.36.07-35.01.07-70.01,0-105.02-.09-4.04-.7-9.07-4.24-11.69-3.4-2.37-7.93-.57-11.7-1.39-.07-1.25-.06-2.51.04-3.76,16.85-1.91,33.51-5.17,50.29-7.6Z"/>
  </g>
</svg>